<svg xmlns="http://www.w3.org/2000/svg" width="138" height="40"><g fill="none"><path fill="#000" d="M138 36c0 2.17-1.81 4-3.97 4H3.97A4.03 4.03 0 0 1 0 36V4c0-2.17 1.81-4 3.97-4h130.06A4.03 4.03 0 0 1 138 4v32z"/><path fill="#FFF" d="M30.27 19.74c0-3.4 2.76-5.04 2.85-5.13A5.82 5.82 0 0 0 28.29 12c-2.07-.17-4.05 1.22-5.09 1.22-1.03 0-2.67-1.22-4.4-1.22a6.31 6.31 0 0 0-5.43 3.3c-2.33 4.1-.6 10.18 1.64 13.48 1.12 1.65 2.41 3.48 4.14 3.4 1.72-.1 2.33-1.05 4.31-1.05 1.98 0 2.59 1.04 4.4 1.04 1.81 0 2.93-1.65 4.05-3.3a12.16 12.16 0 0 0 1.81-3.83c.09.09-3.36-1.21-3.45-5.3zM27 9.83a5.8 5.8 0 0 0 1.38-4.27c-1.3.1-2.94.96-3.88 2a5.62 5.62 0 0 0-1.39 4.1c1.38.17 2.94-.7 3.89-1.83zm27.68 22.26h-2.33L51.06 28h-4.48l-1.21 4.09h-2.33l4.4-13.92h2.76l4.48 13.92zm-4.05-5.83l-1.12-3.65c-.09-.35-.35-1.22-.7-2.61-.16.6-.34 1.48-.68 2.6L47 26.27h3.62zm15.44.6c0 1.75-.43 3.05-1.38 4.1a3.9 3.9 0 0 1-3.02 1.3c-1.3 0-2.24-.43-2.85-1.4v5.31h-2.24V25.3c0-1.04 0-2.17-.09-3.3h1.99l.08 1.56a3.75 3.75 0 0 1 3.37-1.82c1.2 0 2.15.43 2.93 1.39a5.57 5.57 0 0 1 1.2 3.74zm-2.24.1c0-.96-.26-1.83-.7-2.44a2.18 2.18 0 0 0-1.9-.96c-.5 0-1.03.18-1.46.53-.43.34-.77.87-.86 1.47-.09.27-.09.53-.09.7v1.65c0 .7.26 1.3.7 1.83.42.52 1.03.78 1.72.78.86 0 1.46-.35 1.98-.96.43-.7.6-1.47.6-2.6zm13.7-.1c0 1.75-.42 3.05-1.37 4.1a3.9 3.9 0 0 1-3.02 1.3c-1.3 0-2.24-.43-2.85-1.4v5.31h-2.24V25.3c0-1.04 0-2.17-.08-3.3h1.9l.08 1.56a3.66 3.66 0 0 1 3.36-1.82c1.21 0 2.16.43 2.94 1.39a5.63 5.63 0 0 1 1.29 3.74zm-2.23.1c0-.96-.26-1.83-.7-2.44a2.18 2.18 0 0 0-1.9-.96c-.5 0-1.03.18-1.46.53-.43.34-.69.87-.86 1.47-.09.27-.09.53-.09.7v1.65c0 .7.26 1.3.7 1.83.43.52 1.03.78 1.72.78.86 0 1.47-.35 1.98-.96.35-.7.6-1.47.6-2.6zm15 1.21a3.7 3.7 0 0 1-1.2 2.87 5.53 5.53 0 0 1-3.8 1.22 6.1 6.1 0 0 1-3.53-.87l.51-1.83c.95.61 2.07.87 3.2.87.86 0 1.46-.17 1.98-.6.43-.35.69-.87.69-1.57 0-.6-.17-1.04-.6-1.4a4.77 4.77 0 0 0-1.9-1.03c-2.42-.87-3.63-2.27-3.63-4 0-1.13.44-2.1 1.3-2.79a5.23 5.23 0 0 1 3.36-1.13c1.3 0 2.33.26 3.1.7l-.51 1.82a5.29 5.29 0 0 0-2.67-.6c-.78 0-1.38.17-1.82.6a1.8 1.8 0 0 0-.51 1.3c0 .53.17 1.05.6 1.4.35.35 1.04.7 1.98 1.04a7.03 7.03 0 0 1 2.6 1.66c.6.52.85 1.39.85 2.34zm7.34-4.52h-2.42v4.87c0 1.22.43 1.83 1.3 1.83.43 0 .68 0 .94-.09l.09 1.65a4.7 4.7 0 0 1-1.73.26 2.8 2.8 0 0 1-2.07-.78c-.51-.52-.77-1.48-.77-2.7v-5.04H91.5V22h1.47v-1.83l2.15-.7V22h2.42l.09 1.65zm10.95 3.3a5.7 5.7 0 0 1-1.3 3.83 4.68 4.68 0 0 1-3.62 1.57 4.4 4.4 0 0 1-3.45-1.48 5.32 5.32 0 0 1-1.3-3.74c0-1.57.44-2.87 1.39-3.83a4.65 4.65 0 0 1 3.62-1.47 4.6 4.6 0 0 1 3.54 1.47 5.49 5.49 0 0 1 1.12 3.66zm-2.24.1c0-.96-.18-1.75-.6-2.35a2.19 2.19 0 0 0-2-1.22c-.85 0-1.54.43-1.97 1.22-.44.7-.6 1.47-.6 2.43 0 .96.16 1.74.6 2.35.51.78 1.12 1.22 1.98 1.22.86 0 1.47-.44 1.98-1.22.35-.7.6-1.57.6-2.44zm9.48-3.05c-.25 0-.43-.09-.69-.09-.77 0-1.38.26-1.8.87a3.62 3.62 0 0 0-.52 2v5.3h-2.25v-6.86c0-1.13 0-2.18-.08-3.13h1.9l.08 1.91h.09c.26-.7.6-1.22 1.12-1.57a2.82 2.82 0 0 1 1.64-.52h.51V24zm9.84 2.52c0 .44 0 .7-.09 1.04h-6.64c0 .96.34 1.74.95 2.27.52.43 1.3.7 2.15.7.95 0 1.9-.18 2.68-.44l.34 1.56c-.95.44-2.07.61-3.36.61-1.55 0-2.76-.43-3.62-1.4a5.25 5.25 0 0 1-1.3-3.64c0-1.48.43-2.79 1.21-3.74a4.28 4.28 0 0 1 3.45-1.65c1.47 0 2.5.52 3.28 1.65.69.78.95 1.82.95 3.04zM123.6 26c0-.7-.18-1.22-.43-1.74-.35-.6-.95-.96-1.73-.96a2 2 0 0 0-1.72.87c-.35.53-.6 1.05-.7 1.74l4.58.09zM44.07 6.7a3.68 3.68 0 0 1 1.81-.52c.7 0 1.13.17 1.56.43.34.35.6.7.6 1.22 0 .43-.09.78-.34 1.04-.26.26-.6.43-.95.6.17 0 .43.1.6.18.17.09.35.18.52.35a1.46 1.46 0 0 1 .43 1.13 1.8 1.8 0 0 1-.86 1.56c-.26.18-.52.27-.78.35-.26.09-.6.09-.86.09-.35 0-.6 0-.95-.09-.35-.08-.6-.17-.86-.34l.26-.87c.17.08.43.17.69.26.25.08.51.08.86.08.43 0 .86-.08 1.03-.34.26-.18.35-.53.35-.87 0-.26-.09-.44-.17-.61-.09-.18-.26-.26-.44-.35a1.14 1.14 0 0 0-.51-.17c-.18 0-.43-.1-.6-.1h-.44v-.86h.43c.18 0 .43 0 .6-.09.18-.08.35-.08.44-.26.08-.17.26-.17.34-.35.09-.17.09-.26.09-.43 0-.35-.09-.52-.35-.7-.17-.17-.51-.26-.86-.26-.26 0-.52 0-.77.09l-.7.26-.17-.43zm8.63 6.43l-.09-.6c-.34.43-.77.69-1.46.69-.26 0-.44 0-.6-.09-.18-.09-.35-.17-.44-.35-.17-.08-.26-.26-.34-.43-.09-.18-.09-.35-.09-.61 0-.61.26-1.04.78-1.4.51-.34 1.2-.43 2.07-.43v-.08c0-.61-.35-.96-1.04-.96-.52 0-.95.09-1.3.35l-.17-.7a3.28 3.28 0 0 1 1.64-.43c1.3 0 1.9.7 1.9 2v1.82c0 .52 0 .87.09 1.22h-.95zm-.09-2.43a3 3 0 0 0-1.38.26c-.34.17-.43.43-.43.78 0 .26.09.43.17.6.09.18.35.18.52.18.17 0 .26 0 .43-.09.09-.08.26-.08.35-.17.08-.09.17-.17.26-.35.08-.08.08-.26.08-.43v-.78zm6.21-2.53v.87h-2.07v4h-1.12V8.1h3.2zm6.3 2.43a3.42 3.42 0 0 1-.61 1.92 1.3 1.3 0 0 1-.69.52c-.25.09-.51.18-.86.18-.6 0-1.12-.26-1.38-.7v2.61h-1.2V8.17h.94l.09.79c.34-.61.95-.87 1.64-.87.26 0 .52.08.77.17.26.09.44.26.6.52.18.26.35.52.44.79.09.26.26.7.26 1.04zm-1.12 0c0-.25 0-.43-.09-.69l-.26-.52c-.08-.17-.26-.26-.43-.35-.17-.08-.34-.08-.52-.08-.17 0-.34 0-.43.08a1.2 1.2 0 0 0-.34.26 1.9 1.9 0 0 0-.26.44c-.09.17-.09.35-.09.52v.78c0 .18 0 .35.09.53.08.17.17.26.26.43.08.09.26.17.34.26.17.09.35.09.52.09.43 0 .69-.18.95-.44s.26-.78.26-1.3zm6.9-2.43l-1.21 3.4c-.26.78-.6 1.47-.86 2a4.4 4.4 0 0 1-.78 1.13 2.3 2.3 0 0 1-1.2.6l-.27-.95c.26-.09.52-.26.78-.44.26-.17.43-.52.6-.78.1-.09.1-.17.1-.26 0 0 0-.09-.1-.26l-1.8-4.52h1.2l.95 2.78c.09.09.09.26.17.43.09.18.09.35.17.53 0-.1.1-.26.1-.44 0-.17.08-.35.16-.6L69.78 8l1.12.17zm1.9 2.1h.51c.35 0 .7-.1.86-.18.18-.18.26-.26.26-.52 0-.18-.08-.35-.26-.53a1.61 1.61 0 0 0-.69-.17c-.17 0-.43 0-.6.09l-.52.26-.26-.7c.26-.17.6-.26.87-.35.26-.08.51-.08.86-.08.26 0 .43 0 .69.08.26.1.43.1.6.26.18.1.35.27.43.44.1.17.18.35.18.6 0 .18 0 .27-.09.44-.09.09-.17.26-.26.35a1.2 1.2 0 0 1-.34.26c-.09.09-.26.09-.35.09.17 0 .35.09.43.09.18.08.26.17.43.26.1.08.26.17.26.34.09.18.09.27.09.44 0 .26-.09.52-.17.7a2.3 2.3 0 0 1-.52.43l-.69.26c-.26.09-.52.09-.78.09s-.6 0-.86-.09-.6-.17-.78-.26l.26-.7c.18.1.35.18.6.26.27.1.44.1.7.1.34 0 .69-.1.86-.27.17-.17.26-.35.26-.52 0-.17 0-.26-.09-.35l-.26-.26c-.08-.09-.26-.09-.43-.09h-1.03v-.78h-.18zm5.77-2.1v2.79c0 .34 0 .7-.08 1.04.08-.26.26-.52.34-.78.09-.26.26-.52.35-.79l1.2-2.34h1.56v4.95H80.9v-2.87c0-.34 0-.7.09-1.13h-.09c-.08.35-.26.61-.34.79-.09.26-.26.43-.35.7-.17.43-.43.77-.6 1.2-.17.44-.43.8-.7 1.23h-1.37V8h1.03v.17zm9.06 0v.87h-1.47v4h-1.03v-4h-1.47v-.87zm5.52 2.26v.53h-3.28c0 .43.17.87.43 1.04.26.26.6.35 1.12.35.52 0 .95-.09 1.3-.26l.17.78c-.43.17-1.03.35-1.64.35-.34 0-.69-.09-1.03-.18a2.04 2.04 0 0 1-.78-.52 3.04 3.04 0 0 1-.52-.78c-.08-.35-.17-.61-.17-1.04 0-.44.09-.7.17-1.05.09-.35.26-.6.43-.87.18-.26.44-.43.7-.52.25-.17.6-.17.94-.17.35 0 .6.08.87.17.25.09.43.26.6.44.17.17.34.43.43.78.26.26.26.6.26.95zm-1.04-.26c0-.34-.08-.7-.25-.95-.18-.26-.44-.35-.78-.35-.35 0-.6.09-.78.35-.17.26-.34.52-.34.95h2.15zm5.44-1.9c.17 0 .43-.1.77-.1h1.65c.25 0 .51.1.68.18.26.08.43.17.6.35a1 1 0 0 1 .27.7c0 .17 0 .25-.09.43-.09.08-.09.26-.26.34-.17.1-.17.18-.34.26-.09.1-.26.1-.35.1.35.08.6.17.86.34s.35.43.35.78c0 .35-.09.61-.26.78-.17.18-.43.35-.69.44-.26.09-.6.17-.86.17h-2.25V8.26h-.08zm1.03 1.9h1.04c.17 0 .26-.08.43-.08.09-.09.17-.09.26-.18.08-.08.08-.17.08-.34 0-.27-.08-.35-.25-.53a1.84 1.84 0 0 0-.87-.17h-.6l-.09 1.3zm0 2.18h1.12c.18 0 .26-.09.44-.09.08-.09.25-.17.34-.26.09-.09.09-.26.09-.35 0-.26-.09-.43-.35-.6a3.2 3.2 0 0 0-1.03-.18h-.6v1.48z"/></g></svg>