<svg xmlns="http://www.w3.org/2000/svg" width="28.15" height="25.265" viewBox="0 0 28.15 25.265">
  <path id="favorite" d="M125.075,216.277a7.032,7.032,0,0,0-5.23-2.277,6.578,6.578,0,0,0-4.109,1.419,8.4,8.4,0,0,0-1.661,1.734,8.4,8.4,0,0,0-1.661-1.734A6.577,6.577,0,0,0,108.3,214a7.032,7.032,0,0,0-5.231,2.277A8.173,8.173,0,0,0,101,221.859a9.733,9.733,0,0,0,2.594,6.371,55.3,55.3,0,0,0,6.492,6.094c.9.767,1.919,1.636,2.978,2.561a1.535,1.535,0,0,0,2.021,0c1.059-.926,2.079-1.8,2.979-2.562a55.268,55.268,0,0,0,6.492-6.093,9.732,9.732,0,0,0,2.594-6.371,8.173,8.173,0,0,0-2.075-5.582Zm0,0" transform="translate(-100 -213)" fill="#fff" stroke="#919191" stroke-width="2"/>
</svg>
