<svg xmlns="http://www.w3.org/2000/svg" width="34.429" height="26.631" viewBox="0 0 34.429 26.631">
  <g id="kuzov" transform="translate(-228 131)">
    <path id="Path_8" data-name="Path 8" d="M260.362-121.9l-2.634-7.1a3.089,3.089,0,0,0-2.876-2H236.041a3.078,3.078,0,0,0-2.876,2l-2.6,7.011-1.081,1A4.227,4.227,0,0,0,228-117.773v10.343a3.075,3.075,0,0,0,3.075,3.06h1.942a3.075,3.075,0,0,0,3.075-3.06v-1.5h18.244v1.5a3.075,3.075,0,0,0,3.075,3.06h1.942a3.075,3.075,0,0,0,3.075-3.06v-10.616a4.266,4.266,0,0,0-1.317-3.06Zm-25.814-6.6a1.591,1.591,0,0,1,1.493-1.03h18.818a1.6,1.6,0,0,1,1.493,1.03l2.3,6.18h-1.714a5.039,5.039,0,0,0-5.731-4.252,5.041,5.041,0,0,0-4.252,4.252h-14.7Zm20.885,6.18h-7a3.578,3.578,0,0,1,4.237-2.766A3.583,3.583,0,0,1,255.433-122.319Zm-20.812,14.89a1.6,1.6,0,0,1-1.6,1.589h-1.942a1.6,1.6,0,0,1-1.6-1.589v-1.927a2.988,2.988,0,0,0,1.6.427h3.546Zm24.733,1.589h-1.942a1.6,1.6,0,0,1-1.6-1.589v-1.5h3.546a2.987,2.987,0,0,0,1.6-.427v1.927A1.6,1.6,0,0,1,259.354-105.84Zm1.6-6.135a1.592,1.592,0,0,1-1.6,1.574H231.075a1.587,1.587,0,0,1-1.6-1.574h0v-5.8a2.762,2.762,0,0,1,.978-2.1l.029-.029,1-.942h27.86l.706.758c.007.015.029.022.037.037a2.773,2.773,0,0,1,.868,2.008v6.069Z"/>
    <path id="Path_9" data-name="Path 9" d="M281.989,47.736a.738.738,0,0,0-.736-.736h-5.517a.738.738,0,0,0-.736.736v3.825a.738.738,0,0,0,.736.736h5.517a.738.738,0,0,0,.736-.736Zm-1.471,3.09h-4.046V48.471h4.046Z" transform="translate(-43.542 -164.905)"/>
    <path id="Path_10" data-name="Path 10" d="M560.989,47.736a.738.738,0,0,0-.736-.736h-5.517a.738.738,0,0,0-.736.736v3.825a.738.738,0,0,0,.736.736h5.517a.738.738,0,0,0,.736-.736Zm-1.471,3.09h-4.046V48.471h4.046Z" transform="translate(-302.017 -164.905)"/>
    <path id="Path_11" data-name="Path 11" d="M411.542,89h-7.107a.736.736,0,0,0,0,1.471h7.107a.736.736,0,1,0,0-1.471Z" transform="translate(-162.774 -203.815)"/>
    <path id="Path_12" data-name="Path 12" d="M411.542,58h-7.107a.736.736,0,0,0,0,1.471h7.107a.736.736,0,1,0,0-1.471Z" transform="translate(-162.774 -175.096)"/>
  </g>
</svg>
