<svg id="Group_49" data-name="Group 49" xmlns="http://www.w3.org/2000/svg" width="21.001" height="20.626" viewBox="0 0 21.001 20.626">
  <g id="Group_48" data-name="Group 48">
    <path id="Path_28" data-name="Path 28" d="M254,493.793v4.058a.656.656,0,0,0,1.185.389l2.374-3.231Zm0,0" transform="translate(-246.343 -478.382)" stroke="#000" stroke-width="1"/>
    <path id="Path_29" data-name="Path 29" d="M134.724,212.121a.657.657,0,0,0-.684-.047l-19.688,10.282a.656.656,0,0,0,.091,1.2l5.473,1.871,11.657-9.967-9.02,10.867,9.173,3.135a.668.668,0,0,0,.212.035.655.655,0,0,0,.649-.559l2.406-16.188a.658.658,0,0,0-.269-.632Zm0,0" transform="translate(-113.998 -211.999)"/>
  </g>
</svg>
