<svg xmlns="http://www.w3.org/2000/svg" width="21" height="21" viewBox="0 0 21 21">
  <path id="Path_30" data-name="Path 30" d="M67.315,39.784a11.923,11.923,0,0,1-3.744-.6,1.712,1.712,0,0,0-1.665.351l-2.361,1.782a13.049,13.049,0,0,1-5.867-5.866l1.73-2.3a1.7,1.7,0,0,0,.418-1.72,11.94,11.94,0,0,1-.6-3.751A1.687,1.687,0,0,0,53.542,26H49.685A1.687,1.687,0,0,0,48,27.685,19.337,19.337,0,0,0,67.315,47,1.687,1.687,0,0,0,69,45.315V41.47A1.687,1.687,0,0,0,67.315,39.784Z" transform="translate(-48 -26)" fill="#fff"/>
</svg>
